# xmcd
#
# Track frame offsets:
#	150
#	22539
#	50184
#	67316
#	98482
#	130788
#	146918
#	172714
#	201427
#	225496
#	244312
#	265788
#	288962
#	314481
#	335413
#
# Disc length: 4750 seconds
#
# Revision: 0
# Processed by: cddbd v1.5.2PL0 Copyright (c) Steve Scherf et al.
# Submitted via: EasyCDDAExtractor 11.6.0.1
#
DISCID=d9128c0f
DTITLE=Various Artist - Dancefloor Remix Volume 2 [CD3)
DYEAR=2008
DGENRE=Club
TTITLE0=Laurent Wolf - Wash My World (Original Club Mix)
TTITLE1=Dim Chris and Thomas Gold - Self Control (Original Mix)
TTITLE2=September - Cry For You (Original Club Mix)
TTITLE3=Chic Flowerz - Funky Town (Kc Remix)
TTITLE4=Jennifer Cardini and Shonky - August In Paris (Original Mix)
TTITLE5=Yelle - Ce Jeu (Tepr Remix)
TTITLE6=Ame Caleen - A Demi-Nue (Space Morisson Radio Extended)
TTITLE7=Justice - D.A.N.C.E. (Ls Rythmes Digitales Remix)
TTITLE8=Daft Punk - Technologic (Vitalic Remix)
TTITLE9=Charles Schillings Feat. Norma Jean Wright - Be Gone (Supermen Lovers 
TTITLE9=Remix)
TTITLE10=Le Grand Popo Football Club - My Territorry (Italo Remix)
TTITLE11=Royksopp - What Else Is There (Vitalic Remix)
TTITLE12=Electrico - Love In New Wave (Muttonheads and Mathieu Bouthier Remix)
TTITLE13=Yoshimoto - Du What U Du (Trentmoller Remix)
TTITLE14=Wize - Grand Voyage (T.B.S. 80's Street Remix)
EXTD=
EXTT0=
EXTT1=
EXTT2=
EXTT3=
EXTT4=
EXTT5=
EXTT6=
EXTT7=
EXTT8=
EXTT9=
EXTT10=
EXTT11=
EXTT12=
EXTT13=
EXTT14=
PLAYORDER=
